<?xml version="1.0" encoding="UTF-8" standalone="no"?><!DOCTYPE svg PUBLIC "-//W3C//DTD SVG 1.1//EN" "http://www.w3.org/Graphics/SVG/1.1/DTD/svg11.dtd"><svg width="100%" height="100%" viewBox="0 0 65 171" version="1.1" xmlns="http://www.w3.org/2000/svg" xmlns:xlink="http://www.w3.org/1999/xlink" xml:space="preserve" style="fill-rule:evenodd;clip-rule:evenodd;stroke-linecap:round;stroke-linejoin:round;stroke-miterlimit:1.5;"><g id="Bass"><path d="M24.919,107.221c1.253,1.788 3.081,3.091 5.179,3.693c0.177,0.051 0.36,0.104 0.548,0.158c7.33,2.103 15.01,-1.974 17.376,-9.223c0.346,-1.06 0.674,-2.065 0.965,-2.957c0.687,-2.104 2.855,-3.345 5.016,-2.873c0,0 0,0 0,0c0.975,0.213 1.818,0.822 2.327,1.68c0.509,0.859 0.638,1.89 0.357,2.847c-1.064,3.63 -2.728,9.305 -4.142,14.127c-1.688,5.755 -0.936,11.951 2.08,17.135c1.9,3.267 4.119,7.082 6.155,10.582c3.628,6.236 2.103,14.192 -3.573,18.645c-0.21,0.165 -0.421,0.331 -0.635,0.498c-13.229,10.379 -31.812,10.469 -45.141,0.218c0,0 -0.001,0 -0.001,0c-8.728,-6.712 -10.952,-18.946 -5.143,-28.3c2.167,-3.491 4.267,-6.873 5.822,-9.377c1.579,-2.544 1.684,-5.736 0.276,-8.378c-2.623,-4.92 -6.966,-13.068 -10.054,-18.859c-0.807,-1.514 -0.804,-3.331 0.007,-4.843c0.811,-1.512 2.323,-2.519 4.031,-2.683c0,0 0.001,0 0.001,0c3.471,-0.335 6.853,1.223 8.855,4.078c2.958,4.222 7.236,10.325 9.694,13.832Z" style="fill:#c500ff;"/><clipPath id="_clip1"><path d="M24.919,107.221c1.253,1.788 3.081,3.091 5.179,3.693c0.177,0.051 0.36,0.104 0.548,0.158c7.33,2.103 15.01,-1.974 17.376,-9.223c0.346,-1.06 0.674,-2.065 0.965,-2.957c0.687,-2.104 2.855,-3.345 5.016,-2.873c0,0 0,0 0,0c0.975,0.213 1.818,0.822 2.327,1.68c0.509,0.859 0.638,1.89 0.357,2.847c-1.064,3.63 -2.728,9.305 -4.142,14.127c-1.688,5.755 -0.936,11.951 2.08,17.135c1.9,3.267 4.119,7.082 6.155,10.582c3.628,6.236 2.103,14.192 -3.573,18.645c-0.21,0.165 -0.421,0.331 -0.635,0.498c-13.229,10.379 -31.812,10.469 -45.141,0.218c0,0 -0.001,0 -0.001,0c-8.728,-6.712 -10.952,-18.946 -5.143,-28.3c2.167,-3.491 4.267,-6.873 5.822,-9.377c1.579,-2.544 1.684,-5.736 0.276,-8.378c-2.623,-4.92 -6.966,-13.068 -10.054,-18.859c-0.807,-1.514 -0.804,-3.331 0.007,-4.843c0.811,-1.512 2.323,-2.519 4.031,-2.683c0,0 0.001,0 0.001,0c3.471,-0.335 6.853,1.223 8.855,4.078c2.958,4.222 7.236,10.325 9.694,13.832Z"/></clipPath><g clip-path="url(#_clip1)"><path d="M24.719,127.224c0,0 -12.646,0.101 -5.119,16.388c4.915,10.635 22.767,14.249 26.979,1.915c3.997,-11.7 1.708,-20.469 -3.47,-24.983c-2.972,-2.59 0.155,6.613 -18.39,6.68Z" style="fill:#fff;stroke:#000;stroke-width:3px;"/></g><path d="M24.919,107.221c1.253,1.788 3.081,3.091 5.179,3.693c0.177,0.051 0.36,0.104 0.548,0.158c7.33,2.103 15.01,-1.974 17.376,-9.223c0.346,-1.06 0.674,-2.065 0.965,-2.957c0.687,-2.104 2.855,-3.345 5.016,-2.873c0,0 0,0 0,0c0.975,0.213 1.818,0.822 2.327,1.68c0.509,0.859 0.638,1.89 0.357,2.847c-1.064,3.63 -2.728,9.305 -4.142,14.127c-1.688,5.755 -0.936,11.951 2.08,17.135c1.9,3.267 4.119,7.082 6.155,10.582c3.628,6.236 2.103,14.192 -3.573,18.645c-0.21,0.165 -0.421,0.331 -0.635,0.498c-13.229,10.379 -31.812,10.469 -45.141,0.218c0,0 -0.001,0 -0.001,0c-8.728,-6.712 -10.952,-18.946 -5.143,-28.3c2.167,-3.491 4.267,-6.873 5.822,-9.377c1.579,-2.544 1.684,-5.736 0.276,-8.378c-2.623,-4.92 -6.966,-13.068 -10.054,-18.859c-0.807,-1.514 -0.804,-3.331 0.007,-4.843c0.811,-1.512 2.323,-2.519 4.031,-2.683c0,0 0.001,0 0.001,0c3.471,-0.335 6.853,1.223 8.855,4.078c2.958,4.222 7.236,10.325 9.694,13.832Z" style="fill:none;stroke:#000;stroke-width:3px;"/><g id="Guitar"><g><path d="M20.102,7.927c1.184,0.137 2.035,1.211 1.897,2.395c-0.137,1.185 -1.211,2.035 -2.395,1.897c-1.185,-0.137 -2.035,-1.21 -1.898,-2.395c0.138,-1.185 1.211,-2.035 2.396,-1.897Z" style="fill:#fff;stroke:#000;stroke-width:3px;"/><path d="M22.345,10.459l7.077,0.197" style="fill:none;stroke:#000;stroke-width:3px;"/></g><g><path d="M47.786,7.927c-1.184,0.137 -2.035,1.211 -1.897,2.395c0.137,1.185 1.211,2.035 2.395,1.897c1.185,-0.137 2.035,-1.21 1.898,-2.395c-0.138,-1.185 -1.211,-2.035 -2.396,-1.897Z" style="fill:#fff;stroke:#000;stroke-width:3px;"/><path d="M45.543,10.459l-7.077,0.197" style="fill:none;stroke:#000;stroke-width:3px;"/></g><g><path d="M21.016,19.069c1.184,0.137 2.034,1.211 1.897,2.395c-0.138,1.185 -1.211,2.035 -2.395,1.898c-1.185,-0.138 -2.035,-1.211 -1.898,-2.396c0.138,-1.184 1.211,-2.035 2.396,-1.897Z" style="fill:#fff;stroke:#000;stroke-width:3px;"/><path d="M23.259,21.601l7.077,0.197" style="fill:none;stroke:#000;stroke-width:3px;"/></g><g><path d="M46.872,19.069c-1.184,0.137 -2.034,1.211 -1.897,2.395c0.137,1.185 1.211,2.035 2.395,1.898c1.185,-0.138 2.035,-1.211 1.898,-2.396c-0.138,-1.184 -1.211,-2.035 -2.396,-1.897Z" style="fill:#fff;stroke:#000;stroke-width:3px;"/><path d="M44.629,21.601l-7.077,0.197" style="fill:none;stroke:#000;stroke-width:3px;"/></g><path d="M37.719,138.318l-0.675,-105.731l4.933,-31.017l-17.266,0.543l4.855,30.055l-0.445,105.66l8.598,0.49Z" style="fill:#cfa5de;stroke:#000;stroke-width:3px;"/><path d="M38.673,136.883l-11.988,-0.562l-0.161,3.433l11.988,0.561l0.161,-3.432Z" style="fill:#9100ff;stroke:#000;stroke-width:3px;"/></g><path d="M55.048,146.193c2.327,0.328 3.95,2.484 3.622,4.811c-0.328,2.326 -2.483,3.949 -4.81,3.621c-2.327,-0.328 -3.95,-2.483 -3.622,-4.81c0.328,-2.327 2.484,-3.95 4.81,-3.622Z" style="fill:#fff;stroke:#000;stroke-width:3px;"/></g></svg>