<?xml version="1.0" encoding="UTF-8" standalone="no"?><!DOCTYPE svg PUBLIC "-//W3C//DTD SVG 1.1//EN" "http://www.w3.org/Graphics/SVG/1.1/DTD/svg11.dtd"><svg width="100%" height="100%" viewBox="0 0 1099 732" version="1.1" xmlns="http://www.w3.org/2000/svg" xmlns:xlink="http://www.w3.org/1999/xlink" xml:space="preserve" style="fill-rule:evenodd;clip-rule:evenodd;stroke-linecap:round;stroke-linejoin:round;stroke-miterlimit:1.5;"><g id="Dancefloor"><rect x="1.057" y="1.091" width="182.369" height="182.369" style="fill:#ebebeb;stroke:#ebebeb;stroke-width:1px;"/><rect x="1.057" y="366.171" width="182.369" height="182.369" style="fill:#ebebeb;stroke:#ebebeb;stroke-width:1px;"/><rect x="183.862" y="183.336" width="182.369" height="182.369" style="fill:#ebebeb;stroke:#ebebeb;stroke-width:1px;"/><rect x="183.862" y="548.416" width="182.369" height="182.369" style="fill:#ebebeb;stroke:#ebebeb;stroke-width:1px;"/><rect x="366.603" y="1.091" width="182.369" height="182.369" style="fill:#ebebeb;stroke:#ebebeb;stroke-width:1px;"/><rect x="366.603" y="366.171" width="182.369" height="182.369" style="fill:#ebebeb;stroke:#ebebeb;stroke-width:1px;"/><rect x="549.408" y="183.336" width="182.369" height="182.369" style="fill:#ebebeb;stroke:#ebebeb;stroke-width:1px;"/><rect x="549.408" y="548.416" width="182.369" height="182.369" style="fill:#ebebeb;stroke:#ebebeb;stroke-width:1px;"/><rect x="732.593" y="1.091" width="182.369" height="182.369" style="fill:#ebebeb;stroke:#ebebeb;stroke-width:1px;"/><rect x="732.593" y="366.171" width="182.369" height="182.369" style="fill:#ebebeb;stroke:#ebebeb;stroke-width:1px;"/><rect x="915.398" y="183.336" width="182.369" height="182.369" style="fill:#ebebeb;stroke:#ebebeb;stroke-width:1px;"/><rect x="915.398" y="548.416" width="182.369" height="182.369" style="fill:#ebebeb;stroke:#ebebeb;stroke-width:1px;"/><rect x="183.922" y="1.091" width="182.369" height="182.369" style="fill:none;stroke:#ebebeb;stroke-width:1px;"/><rect x="183.922" y="366.171" width="182.369" height="182.369" style="fill:none;stroke:#ebebeb;stroke-width:1px;"/><rect x="366.727" y="183.336" width="182.369" height="182.369" style="fill:none;stroke:#ebebeb;stroke-width:1px;"/><rect x="366.727" y="548.416" width="182.369" height="182.369" style="fill:none;stroke:#ebebeb;stroke-width:1px;"/><rect x="549.468" y="1.091" width="182.369" height="182.369" style="fill:none;stroke:#ebebeb;stroke-width:1px;"/><rect x="549.468" y="366.171" width="182.369" height="182.369" style="fill:none;stroke:#ebebeb;stroke-width:1px;"/><rect x="732.273" y="183.336" width="182.369" height="182.369" style="fill:none;stroke:#ebebeb;stroke-width:1px;"/><rect x="732.273" y="548.416" width="182.369" height="182.369" style="fill:none;stroke:#ebebeb;stroke-width:1px;"/><rect x="915.458" y="1.091" width="182.369" height="182.369" style="fill:none;stroke:#ebebeb;stroke-width:1px;"/><rect x="915.458" y="366.171" width="182.369" height="182.369" style="fill:none;stroke:#ebebeb;stroke-width:1px;"/><rect x="1.552" y="183.46" width="182.369" height="182.369" style="fill:none;stroke:#ebebeb;stroke-width:1px;"/><rect x="1.552" y="548.54" width="182.369" height="182.369" style="fill:none;stroke:#ebebeb;stroke-width:1px;"/></g></svg>