<?xml version="1.0" encoding="UTF-8" standalone="no"?><!DOCTYPE svg PUBLIC "-//W3C//DTD SVG 1.1//EN" "http://www.w3.org/Graphics/SVG/1.1/DTD/svg11.dtd"><svg width="100%" height="100%" viewBox="0 0 65 171" version="1.1" xmlns="http://www.w3.org/2000/svg" xmlns:xlink="http://www.w3.org/1999/xlink" xml:space="preserve" style="fill-rule:evenodd;clip-rule:evenodd;stroke-linecap:round;stroke-linejoin:round;stroke-miterlimit:1.5;"><g id="Guitar"><path d="M19.52,166.646c0,0 -18.699,-5.299 -17.995,-17.507c0.689,-11.957 20.489,-17.32 10.536,-34.548c-6.418,-7.999 -12.316,-26.814 1.785,-17.905c14.1,8.908 15.551,7.602 16.403,3.176c2.639,0.509 4.984,-1.046 6.906,1.337c0.871,1.082 0.51,6.34 2.058,7.067c2.51,1.178 5.534,0.399 7.432,-1.715c1.799,-2.004 1.025,-8.812 6.124,-4.067c13.813,12.852 -3.853,25.191 1.952,32.301c24.102,29.522 -14.014,38.053 -35.201,31.861Z" style="fill:#86cda3;stroke:#000;stroke-width:3px;"/><g><path d="M24.56,27.67c0.895,0.104 1.538,0.915 1.434,1.81c-0.104,0.895 -0.915,1.538 -1.81,1.434c-0.896,-0.104 -1.538,-0.915 -1.434,-1.81c0.104,-0.896 0.915,-1.538 1.81,-1.434Z" style="fill:#fff;stroke:#000;stroke-width:3px;"/><path d="M26.255,29.584l4.267,-0.332" style="fill:none;stroke:#000;stroke-width:3px;"/></g><g><path d="M24.424,31.911c0.895,0.104 1.538,0.915 1.434,1.811c-0.104,0.895 -0.915,1.538 -1.811,1.434c-0.895,-0.104 -1.537,-0.915 -1.434,-1.811c0.104,-0.895 0.916,-1.538 1.811,-1.434Z" style="fill:#fff;stroke:#000;stroke-width:3px;"/><path d="M26.119,33.825l4.267,-0.331" style="fill:none;stroke:#000;stroke-width:3px;"/></g><g><path d="M24.358,23.249c0.895,0.104 1.538,0.915 1.434,1.811c-0.104,0.895 -0.915,1.537 -1.81,1.434c-0.896,-0.104 -1.538,-0.916 -1.434,-1.811c0.104,-0.895 0.915,-1.538 1.81,-1.434Z" style="fill:#fff;stroke:#000;stroke-width:3px;"/><path d="M26.053,25.163l4.969,-0.098" style="fill:none;stroke:#000;stroke-width:3px;"/></g><g><path d="M24.216,18.529c0.896,0.104 1.538,0.915 1.434,1.81c-0.103,0.895 -0.915,1.538 -1.81,1.434c-0.895,-0.104 -1.538,-0.915 -1.434,-1.81c0.104,-0.896 0.915,-1.538 1.81,-1.434Z" style="fill:#fff;stroke:#000;stroke-width:3px;"/><path d="M25.912,20.443l5.107,-0.043" style="fill:none;stroke:#000;stroke-width:3px;"/></g><g><path d="M24.267,13.669c0.895,0.104 1.538,0.915 1.434,1.81c-0.104,0.895 -0.915,1.538 -1.81,1.434c-0.896,-0.104 -1.538,-0.915 -1.434,-1.81c0.103,-0.896 0.915,-1.538 1.81,-1.434Z" style="fill:#fff;stroke:#000;stroke-width:3px;"/><path d="M25.962,15.583l5.349,0.148" style="fill:none;stroke:#000;stroke-width:3px;"/></g><g><path d="M23.683,8.719c0.895,0.104 1.538,0.915 1.434,1.811c-0.104,0.895 -0.915,1.538 -1.811,1.434c-0.895,-0.104 -1.538,-0.915 -1.434,-1.811c0.104,-0.895 0.915,-1.538 1.811,-1.434Z" style="fill:#fff;stroke:#000;stroke-width:3px;"/><path d="M25.378,10.633l5.456,0.265" style="fill:none;stroke:#000;stroke-width:3px;"/></g><path d="M24.48,119.93c0,0 5.389,13.255 -3.344,23.02c-8.734,9.765 33.083,15.55 26.953,2.188c-6.129,-13.362 -5.96,-20.986 -1.046,-26.39c4.913,-5.403 -4.035,1.106 -22.563,1.182Z" style="fill:#fff;stroke:#000;stroke-width:3px;"/><path d="M39.875,142.006l-0.676,-105.631c0,0 0.859,-0.932 1.943,-2.109c2.644,-2.868 3.302,-7.046 1.667,-10.588c-1.365,-2.96 -2.884,-6.252 -3.607,-7.821c-0.253,-0.548 -0.106,-1.197 0.359,-1.582c0.483,-0.4 1.143,-0.947 1.854,-1.536c1.107,-0.917 1.764,-2.267 1.803,-3.703c0.038,-1.437 -0.546,-2.82 -1.602,-3.794c-0.204,-0.189 -0.408,-0.377 -0.608,-0.562c-1.932,-1.782 -4.759,-2.196 -7.12,-1.041c0,0 0,0 0,0c-2.377,1.162 -3.823,3.637 -3.67,6.278c0.488,8.408 1.511,26.039 1.511,26.039l-0.445,105.56l8.591,0.49Z" style="fill:#50fa99;stroke:#000;stroke-width:3px;"/><path d="M44.722,145.7c2.325,0.328 3.946,2.481 3.618,4.806c-0.327,2.324 -2.481,3.946 -4.805,3.618c-2.325,-0.328 -3.946,-2.481 -3.618,-4.806c0.327,-2.324 2.481,-3.945 4.805,-3.618Z" style="fill:#fff;stroke:#000;stroke-width:3px;"/><path d="M54.928,150.922c2.324,0.328 3.946,2.481 3.618,4.805c-0.328,2.325 -2.481,3.946 -4.806,3.619c-2.324,-0.328 -3.945,-2.481 -3.618,-4.806c0.328,-2.324 2.481,-3.946 4.806,-3.618Z" style="fill:#fff;stroke:#000;stroke-width:3px;"/><path d="M40.827,140.572l-11.977,-0.561l-0.16,3.429l11.976,0.561l0.161,-3.429Z" style="fill:#50fa99;stroke:#000;stroke-width:3px;"/></g></svg>