<?xml version="1.0" encoding="UTF-8" standalone="no"?><!DOCTYPE svg PUBLIC "-//W3C//DTD SVG 1.1//EN" "http://www.w3.org/Graphics/SVG/1.1/DTD/svg11.dtd"><svg width="100%" height="100%" viewBox="0 0 56 192" version="1.1" xmlns="http://www.w3.org/2000/svg" xmlns:xlink="http://www.w3.org/1999/xlink" xml:space="preserve" style="fill-rule:evenodd;clip-rule:evenodd;stroke-linecap:round;stroke-linejoin:round;stroke-miterlimit:1.5;"><g id="Keys"><rect x="1.589" y="1.653" width="51.223" height="187.88" style="fill:#fff;stroke:#000;stroke-width:3px;"/><rect x="1.589" y="1.653" width="51.223" height="187.88" style="fill:#fff;stroke:#000;stroke-width:3px;"/><rect x="1.589" y="1.653" width="51.223" height="187.88" style="fill:#ffa500;stroke:#000;stroke-width:3px;"/><path d="M11.456,142.791l0,-24.244" style="fill:none;stroke:#000;stroke-width:3px;"/><path d="M11.456,34.669l0,-14.531" style="fill:none;stroke:#000;stroke-width:3px;"/><rect x="27.2" y="8.611" width="25.612" height="173.998" style="fill:#fff;stroke:#000;stroke-width:3px;"/><path d="M53.946,15.173l-25.418,0" style="fill:none;stroke:#000;stroke-width:3px;"/><path d="M53.946,34.685l-25.418,0" style="fill:none;stroke:#000;stroke-width:3px;"/><path d="M53.946,54.197l-25.418,0" style="fill:none;stroke:#000;stroke-width:3px;"/><path d="M53.946,73.709l-25.418,0" style="fill:none;stroke:#000;stroke-width:3px;"/><path d="M53.946,93.22l-25.418,0" style="fill:none;stroke:#000;stroke-width:3px;"/><path d="M53.946,112.732l-25.418,0" style="fill:none;stroke:#000;stroke-width:3px;"/><path d="M53.946,132.244l-25.418,0" style="fill:none;stroke:#000;stroke-width:3px;"/><path d="M53.946,151.756l-25.418,0" style="fill:none;stroke:#000;stroke-width:3px;"/><path d="M53.946,21.677l-25.418,0" style="fill:none;stroke:#000;stroke-width:3px;"/><path d="M53.946,41.189l-25.418,0" style="fill:none;stroke:#000;stroke-width:3px;"/><path d="M53.946,60.701l-25.418,0" style="fill:none;stroke:#000;stroke-width:3px;"/><path d="M53.946,80.213l-25.418,0" style="fill:none;stroke:#000;stroke-width:3px;"/><path d="M53.946,99.724l-25.418,0" style="fill:none;stroke:#000;stroke-width:3px;"/><path d="M53.946,119.236l-25.418,0" style="fill:none;stroke:#000;stroke-width:3px;"/><path d="M53.946,138.748l-25.418,0" style="fill:none;stroke:#000;stroke-width:3px;"/><path d="M53.946,158.26l-25.418,0" style="fill:none;stroke:#000;stroke-width:3px;"/><path d="M53.946,28.181l-25.418,0" style="fill:none;stroke:#000;stroke-width:3px;"/><path d="M53.946,47.693l-25.418,0" style="fill:none;stroke:#000;stroke-width:3px;"/><path d="M53.946,67.205l-25.418,0" style="fill:none;stroke:#000;stroke-width:3px;"/><path d="M53.946,86.716l-25.418,0" style="fill:none;stroke:#000;stroke-width:3px;"/><path d="M53.946,106.228l-25.418,0" style="fill:none;stroke:#000;stroke-width:3px;"/><path d="M53.946,125.74l-25.418,0" style="fill:none;stroke:#000;stroke-width:3px;"/><path d="M53.946,145.252l-25.418,0" style="fill:none;stroke:#000;stroke-width:3px;"/><path d="M53.946,164.764l-25.418,0" style="fill:none;stroke:#000;stroke-width:3px;"/><path d="M53.946,171.268l-25.418,0" style="fill:none;stroke:#000;stroke-width:3px;"/><path d="M53.946,177.772l-25.418,0" style="fill:none;stroke:#000;stroke-width:3px;"/><path d="M41.975,14.504c0,-0.442 -0.358,-0.801 -0.8,-0.801l-15.042,0c-0.441,0 -0.8,0.359 -0.8,0.801l0,1.6c0,0.442 0.359,0.801 0.8,0.801l15.042,0c0.442,0 0.8,-0.359 0.8,-0.801l0,-1.6Z"/><path d="M41.975,59.981c0,-0.441 -0.358,-0.8 -0.8,-0.8l-15.042,0c-0.441,0 -0.8,0.359 -0.8,0.8l0,1.601c0,0.442 0.359,0.8 0.8,0.8l15.042,0c0.442,0 0.8,-0.358 0.8,-0.8l0,-1.601Z"/><path d="M41.975,33.729c0,-0.442 -0.358,-0.8 -0.8,-0.8l-15.042,0c-0.441,0 -0.8,0.358 -0.8,0.8l0,1.601c0,0.441 0.359,0.8 0.8,0.8l15.042,0c0.442,0 0.8,-0.359 0.8,-0.8l0,-1.601Z"/><path d="M41.975,79.554c0,-0.442 -0.358,-0.801 -0.8,-0.801l-15.042,0c-0.441,0 -0.8,0.359 -0.8,0.801l0,1.6c0,0.442 0.359,0.801 0.8,0.801l15.042,0c0.442,0 0.8,-0.359 0.8,-0.801l0,-1.6Z"/><path d="M41.975,124.654c0,-0.442 -0.358,-0.801 -0.8,-0.801l-15.042,0c-0.441,0 -0.8,0.359 -0.8,0.801l0,1.6c0,0.442 0.359,0.801 0.8,0.801l15.042,0c0.442,0 0.8,-0.359 0.8,-0.801l0,-1.6Z"/><path d="M41.975,170.388c0,-0.442 -0.358,-0.8 -0.8,-0.8l-15.042,0c-0.441,0 -0.8,0.358 -0.8,0.8l0,1.601c0,0.441 0.359,0.8 0.8,0.8l15.042,0c0.442,0 0.8,-0.359 0.8,-0.8l0,-1.601Z"/><path d="M41.975,20.938c0,-0.442 -0.358,-0.8 -0.8,-0.8l-15.042,0c-0.441,0 -0.8,0.358 -0.8,0.8l0,1.601c0,0.442 0.359,0.8 0.8,0.8l15.042,0c0.442,0 0.8,-0.358 0.8,-0.8l0,-1.601Z"/><path d="M41.975,66.416c0,-0.442 -0.358,-0.801 -0.8,-0.801l-15.042,0c-0.441,0 -0.8,0.359 -0.8,0.801l0,1.6c0,0.442 0.359,0.801 0.8,0.801l15.042,0c0.442,0 0.8,-0.359 0.8,-0.801l0,-1.6Z"/><path d="M41.975,40.163c0,-0.441 -0.358,-0.8 -0.8,-0.8l-15.042,0c-0.441,0 -0.8,0.359 -0.8,0.8l0,1.601c0,0.442 0.359,0.8 0.8,0.8l15.042,0c0.442,0 0.8,-0.358 0.8,-0.8l0,-1.601Z"/><path d="M41.975,105.365c0,-0.441 -0.358,-0.8 -0.8,-0.8l-15.042,0c-0.441,0 -0.8,0.359 -0.8,0.8l0,1.601c0,0.442 0.359,0.801 0.8,0.801l15.042,0c0.442,0 0.8,-0.359 0.8,-0.801l0,-1.601Z"/><path d="M41.975,150.797c0,-0.442 -0.358,-0.801 -0.8,-0.801l-15.042,0c-0.441,0 -0.8,0.359 -0.8,0.801l0,1.6c0,0.442 0.359,0.801 0.8,0.801l15.042,0c0.442,0 0.8,-0.359 0.8,-0.801l0,-1.6Z"/><path d="M41.975,85.988c0,-0.442 -0.358,-0.8 -0.8,-0.8l-15.042,0c-0.441,0 -0.8,0.358 -0.8,0.8l0,1.601c0,0.442 0.359,0.8 0.8,0.8l15.042,0c0.442,0 0.8,-0.358 0.8,-0.8l0,-1.601Z"/><path d="M41.975,131.088c0,-0.442 -0.358,-0.8 -0.8,-0.8l-15.042,0c-0.441,0 -0.8,0.358 -0.8,0.8l0,1.601c0,0.441 0.359,0.8 0.8,0.8l15.042,0c0.442,0 0.8,-0.359 0.8,-0.8l0,-1.601Z"/><path d="M41.975,176.822c0,-0.441 -0.358,-0.8 -0.8,-0.8l-15.042,0c-0.441,0 -0.8,0.359 -0.8,0.8l0,1.601c0,0.442 0.359,0.8 0.8,0.8l15.042,0c0.442,0 0.8,-0.358 0.8,-0.8l0,-1.601Z"/><path d="M41.975,46.852c0,-0.442 -0.358,-0.8 -0.8,-0.8l-15.042,0c-0.441,0 -0.8,0.358 -0.8,0.8l0,1.601c0,0.441 0.359,0.8 0.8,0.8l15.042,0c0.442,0 0.8,-0.359 0.8,-0.8l0,-1.601Z"/><path d="M41.975,112.054c0,-0.442 -0.358,-0.8 -0.8,-0.8l-15.042,0c-0.441,0 -0.8,0.358 -0.8,0.8l0,1.601c0,0.442 0.359,0.8 0.8,0.8l15.042,0c0.442,0 0.8,-0.358 0.8,-0.8l0,-1.601Z"/><path d="M41.975,157.485c0,-0.441 -0.358,-0.8 -0.8,-0.8l-15.042,0c-0.441,0 -0.8,0.359 -0.8,0.8l0,1.601c0,0.442 0.359,0.8 0.8,0.8l15.042,0c0.442,0 0.8,-0.358 0.8,-0.8l0,-1.601Z"/><path d="M41.975,92.677c0,-0.442 -0.358,-0.801 -0.8,-0.801l-15.042,0c-0.441,0 -0.8,0.359 -0.8,0.801l0,1.6c0,0.442 0.359,0.801 0.8,0.801l15.042,0c0.442,0 0.8,-0.359 0.8,-0.801l0,-1.6Z"/><path d="M41.975,137.777c0,-0.442 -0.358,-0.801 -0.8,-0.801l-15.042,0c-0.441,0 -0.8,0.359 -0.8,0.801l0,1.6c0,0.442 0.359,0.801 0.8,0.801l15.042,0c0.442,0 0.8,-0.359 0.8,-0.801l0,-1.6Z"/><circle cx="11.456" cy="175.653" r="2.864" style="fill:#e2c594;stroke:#000;stroke-width:3px;"/><circle cx="11.456" cy="165.839" r="2.864" style="fill:#e2c594;stroke:#000;stroke-width:3px;"/><circle cx="11.456" cy="156.435" r="2.864" style="fill:#e2c594;stroke:#000;stroke-width:3px;"/><circle cx="11.456" cy="43.357" r="2.864" style="fill:#e2c594;stroke:#000;stroke-width:3px;"/><rect x="8.139" y="53.735" width="11.009" height="55.159" style="fill:#e2c594;stroke:#000;stroke-width:3px;"/></g></svg>