<?xml version="1.0" encoding="UTF-8" standalone="no"?><!DOCTYPE svg PUBLIC "-//W3C//DTD SVG 1.1//EN" "http://www.w3.org/Graphics/SVG/1.1/DTD/svg11.dtd"><svg width="100%" height="100%" viewBox="0 0 202 176" version="1.1" xmlns="http://www.w3.org/2000/svg" xmlns:xlink="http://www.w3.org/1999/xlink" xml:space="preserve" style="fill-rule:evenodd;clip-rule:evenodd;stroke-linecap:round;stroke-linejoin:round;stroke-miterlimit:1.5;"><g id="Kit"><g><path d="M175.389,60.654l0,80.37l24.319,10.679l-29.723,0" style="fill:none;stroke:#000;stroke-width:3px;"/><path d="M176.009,55.346c10.633,0.004 19.266,1.196 19.265,2.661c0,1.465 -8.633,2.651 -19.266,2.647c-10.633,-0.003 -19.266,-1.196 -19.265,-2.66c0,-1.465 8.633,-2.652 19.266,-2.648Z" style="fill:#e57774;stroke:#000;stroke-width:3px;"/><path d="M176.008,38.361l0,16.985" style="fill:#e57774;stroke:#000;stroke-width:3px;"/></g><path d="M106.257,57.449l0,20.696" style="fill:none;stroke:#000;stroke-width:3px;"/><path d="M160.979,73.368l-41.813,-0.265l-0.152,23.894l41.813,0.265l0.152,-23.894Z" style="fill:#ff3631;stroke:#000;stroke-width:3px;"/><path d="M95.357,47.24l-40.975,-8.33l-5.844,28.749l40.976,8.329l5.843,-28.748Z" style="fill:#ff3631;stroke:#000;stroke-width:3px;"/><path d="M104.643,47.24l40.976,-8.33l5.843,28.749l-40.975,8.329l-5.844,-28.748Z" style="fill:#ff3631;stroke:#000;stroke-width:3px;"/><path d="M53.924,81.216l-36.847,-2.401l-3.479,53.398l36.847,2.401l3.479,-53.398Z" style="fill:#ff3631;stroke:#000;stroke-width:3px;"/><path d="M94.144,55.009l0,23.136" style="fill:none;stroke:#000;stroke-width:3px;"/><circle cx="101.911" cy="126.136" r="47.991" style="fill:#e57774;stroke:#000;stroke-width:3px;"/><g><path d="M141.102,156.392l7.361,7.323" style="fill:#d674ad;stroke:#000;stroke-width:3px;"/><circle cx="151.755" cy="168.921" r="5.206" style="fill:#fa24a1;stroke:#000;stroke-width:3px;"/></g><g><path d="M64.849,156.392l-7.361,7.323" style="fill:#fa24a1;stroke:#000;stroke-width:3px;"/><circle cx="54.196" cy="168.921" r="5.206" style="fill:#fa24a1;stroke:#000;stroke-width:3px;"/></g><path d="M48.99,157.045l-35.392,0l14.277,-14.341l0,-138.505" style="fill:none;stroke:#000;stroke-width:3px;"/><path d="M30.84,2.78c15.244,2.558 26.909,8.872 26.033,14.092c-0.876,5.22 -13.963,7.381 -29.206,4.823c-15.244,-2.558 -26.909,-8.872 -26.033,-14.092c0.875,-5.219 13.962,-7.38 29.206,-4.823Z" style="fill:#e57774;stroke:#000;stroke-width:3px;"/><circle cx="117.705" cy="141.356" r="10.348" style="fill:#fff;stroke:#000;stroke-width:3px;"/></g></svg>