<?xml version="1.0" encoding="UTF-8" standalone="no"?><!DOCTYPE svg PUBLIC "-//W3C//DTD SVG 1.1//EN" "http://www.w3.org/Graphics/SVG/1.1/DTD/svg11.dtd"><svg width="100%" height="100%" viewBox="0 0 61 170" version="1.1" xmlns="http://www.w3.org/2000/svg" xmlns:xlink="http://www.w3.org/1999/xlink" xml:space="preserve" style="fill-rule:evenodd;clip-rule:evenodd;stroke-linecap:round;stroke-linejoin:round;stroke-miterlimit:1.5;"><g id="Mic"><path d="M23.861,10.733l-5.296,12.006l38.436,13.117l2.39,-5.417l-35.53,-19.706Z" style="fill:#fcc162;stroke:#000;stroke-width:3px;"/><path d="M7.31,22.917c2.327,-2.12 4.708,-5.547 6.541,-9.703c1.733,-3.928 2.655,-7.779 2.749,-10.847c0.282,0.098 0.562,0.209 0.84,0.331c5.716,2.522 8.31,9.21 5.788,14.927c-2.521,5.716 -9.21,8.31 -14.926,5.788c-0.342,-0.151 -0.673,-0.316 -0.992,-0.496Z" style="fill:#f7e319;stroke:#000;stroke-width:3px;"/><path d="M7.31,22.917c-5.016,-2.822 -7.168,-9.056 -4.797,-14.43c2.399,-5.439 8.57,-8.051 14.087,-6.12c-0.094,3.068 -1.016,6.919 -2.749,10.847c-1.833,4.156 -4.214,7.583 -6.541,9.703Z" style="fill:#fcc162;stroke:#000;stroke-width:3px;"/><rect x="33.466" y="27.768" width="4.532" height="139.935" style="fill:#f7e319;stroke:#000;stroke-width:3px;"/><rect x="18.623" y="159.868" width="34.218" height="7.789" style="fill:#fcc162;stroke:#000;stroke-width:3px;"/></g></svg>