<?xml version="1.0" encoding="UTF-8" standalone="no"?><!DOCTYPE svg PUBLIC "-//W3C//DTD SVG 1.1//EN" "http://www.w3.org/Graphics/SVG/1.1/DTD/svg11.dtd"><svg width="100%" height="100%" viewBox="0 0 99 174" version="1.1" xmlns="http://www.w3.org/2000/svg" xmlns:xlink="http://www.w3.org/1999/xlink" xml:space="preserve" style="fill-rule:evenodd;clip-rule:evenodd;stroke-linecap:round;stroke-linejoin:round;stroke-miterlimit:1.5;"><g id="Sax"><path d="M10.758,107.577c-0.007,0 -0.013,-0.006 -0.013,-0.013c-0.001,-0.008 0.005,-0.014 0.012,-0.014c10.101,-0.284 26.285,-0.74 36.074,-1.016c0.035,-0.001 0.065,0.027 0.066,0.062c0.001,0.035 -0.026,0.064 -0.061,0.066c-0.003,0 -0.006,0 -0.009,0c-2.319,0.101 -4.502,1.124 -6.063,2.843c-1.561,1.718 -2.37,3.989 -2.248,6.308c0.439,8.348 1.09,20.716 1.483,28.191c0.19,3.61 3.172,6.439 6.787,6.439c0,0 0,0 0,0c3.588,0 6.54,-2.824 6.699,-6.408c1.017,-22.87 4.478,-100.702 5.805,-130.536c0.292,-6.583 5.715,-11.77 12.305,-11.77c0,0 0,0 0,0c2.833,0 5.129,2.297 5.129,5.129c0,0.587 0,1.193 0,1.799c0,3.826 3.101,6.928 6.927,6.928c3.084,0 6.616,0 9.297,0c0.663,0 1.256,0.41 1.489,1.03c0.234,0.62 0.058,1.32 -0.44,1.757c0,0 -0.001,0 -0.001,0c-2.039,1.788 -4.694,2.711 -7.402,2.576c-1.245,-0.063 -2.658,-0.133 -4.085,-0.205c-5.312,-0.266 -9.72,-4.202 -10.584,-9.45c0,0 0,0 0,0c-0.211,-1.283 -1.319,-2.224 -2.619,-2.224c-0.378,0 -0.778,0 -1.177,0c-1.883,0 -3.41,1.526 -3.41,3.409c0,17.378 0,96.829 0,136.806c0,6.13 -2.435,12.009 -6.77,16.344c-4.335,4.335 -10.214,6.77 -16.344,6.77c0,0 0,0 -0.001,0c-7.206,0 -13.299,-5.336 -14.249,-12.479c-1.673,-12.567 -4.217,-31.681 -5.733,-43.073c-0.721,-5.41 -5.403,-9.407 -10.86,-9.27c-0.001,0 -0.002,0.001 -0.004,0.001Z" style="fill:#e63f3f;stroke:#000;stroke-width:3px;"/><g><circle cx="55.625" cy="47.232" r="4.21" style="fill:#f4d6ce;stroke:#000;stroke-width:3px;"/><path d="M60.535,47.42l4.013,0" style="fill:#f4d6ce;stroke:#000;stroke-width:3px;"/></g><g><circle cx="53.639" cy="58.506" r="4.21" style="fill:#f4d6ce;stroke:#000;stroke-width:3px;"/><path d="M58.549,58.694l4.013,0" style="fill:none;stroke:#000;stroke-width:3px;"/></g><g><circle cx="53.639" cy="69.781" r="4.21" style="fill:#f4d6ce;stroke:#000;stroke-width:3px;"/><path d="M58.549,69.968l4.013,0" style="fill:none;stroke:#000;stroke-width:3px;"/></g><g><path d="M65.361,101.173c-2.244,-0.602 -3.579,-2.913 -2.977,-5.157c0.601,-2.245 2.912,-3.579 5.157,-2.977c2.244,0.601 3.578,2.912 2.977,5.156c-0.602,2.245 -2.912,3.579 -5.157,2.978Z" style="fill:#f4d6ce;stroke:#000;stroke-width:3px;"/><path d="M61.757,95.653l-3.877,-1.038" style="fill:#f4d6ce;stroke:#000;stroke-width:3px;"/></g><g><path d="M31.563,120.862c3.124,0.037 5.63,2.603 5.593,5.727c-0.037,3.124 -2.604,5.63 -5.728,5.592c-3.123,-0.037 -5.629,-2.603 -5.592,-5.727c0.037,-3.124 2.604,-5.63 5.727,-5.592Z" style="fill:#f4d6ce;stroke:#000;stroke-width:3px;"/><path d="M38.093,126.853l5.396,0.064" style="fill:none;stroke:#000;stroke-width:3px;"/></g><g><path d="M33.486,136.207c3.124,0.037 5.63,2.603 5.593,5.727c-0.037,3.124 -2.604,5.63 -5.728,5.593c-3.123,-0.038 -5.629,-2.604 -5.592,-5.728c0.037,-3.124 2.603,-5.629 5.727,-5.592Z" style="fill:#f4d6ce;stroke:#000;stroke-width:3px;"/><path d="M40.016,142.198l5.395,0.064" style="fill:none;stroke:#000;stroke-width:3px;"/></g><g><path d="M54.882,160.003c0.227,3.116 -2.118,5.83 -5.234,6.057c-3.116,0.227 -5.83,-2.118 -6.057,-5.234c-0.227,-3.115 2.118,-5.829 5.234,-6.056c3.116,-0.228 5.83,2.118 6.057,5.233Z" style="fill:#f4d6ce;stroke:#000;stroke-width:3px;"/><path d="M49.465,167.017l0.392,5.381" style="fill:none;stroke:#000;stroke-width:3px;"/></g><g><path d="M65.462,112.044c-2.244,-0.602 -3.578,-2.912 -2.977,-5.157c0.602,-2.245 2.912,-3.579 5.157,-2.977c2.245,0.601 3.579,2.912 2.977,5.156c-0.601,2.245 -2.912,3.579 -5.157,2.978Z" style="fill:#f4d6ce;stroke:#000;stroke-width:3px;"/><path d="M61.858,106.524l-3.877,-1.038" style="fill:none;stroke:#000;stroke-width:3px;"/></g><g><path d="M65.462,123.319c-2.244,-0.601 -3.578,-2.912 -2.977,-5.156c0.602,-2.245 2.912,-3.579 5.157,-2.978c2.245,0.602 3.579,2.913 2.977,5.157c-0.601,2.245 -2.912,3.579 -5.157,2.977Z" style="fill:#f4d6ce;stroke:#000;stroke-width:3px;"/><path d="M61.858,117.8l-3.877,-1.039" style="fill:none;stroke:#000;stroke-width:3px;"/></g></g></svg>