<?xml version="1.0" encoding="UTF-8" standalone="no"?><!DOCTYPE svg PUBLIC "-//W3C//DTD SVG 1.1//EN" "http://www.w3.org/Graphics/SVG/1.1/DTD/svg11.dtd"><svg width="100%" height="100%" viewBox="0 0 85 182" version="1.1" xmlns="http://www.w3.org/2000/svg" xmlns:xlink="http://www.w3.org/1999/xlink" xml:space="preserve" style="fill-rule:evenodd;clip-rule:evenodd;stroke-linecap:round;stroke-linejoin:round;stroke-miterlimit:1.5;"><g id="Trombone"><path d="M1.635,105.08c0,0 20.806,-3.013 20.806,-40.496c0,-15.53 0,-34.059 0,-46.981c0,-8.831 7.158,-15.989 15.989,-15.989c0,0 0,0 0.001,0c8.849,0 16.049,7.123 16.144,15.972c0.382,35.727 1.297,121.113 1.591,148.574c0.052,4.893 3.856,8.925 8.738,9.263c0,0 0,0.001 0,0.001c2.24,0.155 4.444,-0.627 6.085,-2.16c1.641,-1.532 2.572,-3.677 2.571,-5.922c-0.014,-23.856 -0.052,-89.996 -0.064,-110.554c-0.003,-4.064 -0.948,-8.072 -2.761,-11.708c-0.37,-0.741 -0.624,-1.252 -0.624,-1.252l13.069,0.081c0,0 0,0 0,0c-2.931,4.321 -4.497,9.422 -4.497,14.643c0,21.51 0,80.71 0,107.596c0,7.513 -6.091,13.603 -13.603,13.603c0,0 0,0 0,0c-7.536,0 -13.657,-6.083 -13.706,-13.617c-0.211,-33.01 -0.748,-116.871 -0.948,-148.114c-0.02,-3.175 -1.302,-6.211 -3.561,-8.44c-2.26,-2.23 -5.314,-3.469 -8.488,-3.447c0,0 0,0 -0.001,0c-6.618,0.048 -11.958,5.426 -11.958,12.044c0,17.077 0,46.407 0,46.407c0,0 -0.198,40.504 19.507,40.504c24.988,0 -44.29,-0.008 -44.29,-0.008Z" style="fill:#b1ef2e;stroke:#000;stroke-width:3px;"/><rect x="26.614" y="23.259" width="23.305" height="12.046" style="fill:#c0dba7;stroke:#000;stroke-width:3px;"/><rect x="55.953" y="62.545" width="16.702" height="7.012" style="fill:#c0dba7;stroke:#000;stroke-width:3px;"/></g></svg>