<?xml version="1.0" encoding="UTF-8" standalone="no"?><!DOCTYPE svg PUBLIC "-//W3C//DTD SVG 1.1//EN" "http://www.w3.org/Graphics/SVG/1.1/DTD/svg11.dtd"><svg width="100%" height="100%" viewBox="0 0 48 161" version="1.1" xmlns="http://www.w3.org/2000/svg" xmlns:xlink="http://www.w3.org/1999/xlink" xml:space="preserve" style="fill-rule:evenodd;clip-rule:evenodd;stroke-linecap:round;stroke-linejoin:round;stroke-miterlimit:1.5;"><g id="Trumpet"><path id="Trumpet1" d="M1.647,158.391l44.093,0c0,0 -2.194,-2.074 -5.134,-4.854c-9.594,-9.073 -15.03,-21.695 -15.03,-34.9c0,-20.805 0,-51.812 0,-66.262c0,-2.108 0.837,-4.13 2.327,-5.62c1.491,-1.49 3.512,-2.328 5.62,-2.328c0,0 0,0 0,0c2.108,0 4.129,0.838 5.62,2.328c1.49,1.49 2.327,3.512 2.327,5.62c0,14.335 0,44.357 0,58.643c0,2.09 -0.83,4.094 -2.307,5.572c-1.478,1.478 -3.482,2.308 -5.572,2.308c0,0 0,0 -0.001,0c-2.089,0 -4.094,-0.83 -5.571,-2.308c-1.478,-1.478 -2.308,-3.482 -2.308,-5.571c0,-21.296 0,-79.577 0,-97.168c0,-3.262 1.295,-6.389 3.602,-8.695c0,0 0,-0.001 0,-0.001c0.598,-0.597 0.776,-1.496 0.453,-2.277c-0.324,-0.781 -1.086,-1.29 -1.931,-1.29c-2.609,0 -5.778,0 -8.351,0c-0.836,0 -1.592,0.494 -1.928,1.26c-0.335,0.765 -0.185,1.656 0.382,2.27c0,0.001 0,0.001 0.001,0.001c2.124,2.3 3.133,4.613 3.133,7.744c0,16.74 0.171,72.975 0.171,98.132c0,3.337 1.325,6.537 3.685,8.897c2.359,2.359 5.559,3.685 8.896,3.685c0,0 0.001,0 0.001,0c3.337,0 6.537,-1.326 8.896,-3.685c2.36,-2.36 3.685,-5.56 3.685,-8.897c0,-15.629 0,-42.145 0,-57.83c0,-3.368 -1.337,-6.598 -3.719,-8.98c-2.382,-2.381 -5.612,-3.719 -8.98,-3.719c0,0 0,0 0,0c-3.368,0 -6.598,1.338 -8.98,3.719c-2.382,2.382 -3.719,5.612 -3.719,8.98c0,16.713 0,46.279 0,66.048c0,12.866 -5.162,25.194 -14.329,34.222c-2.875,2.831 -5.032,4.956 -5.032,4.956Z" style="fill:#76a5d0;"/><clipPath id="_clip1"><path d="M1.647,158.391l44.093,0c0,0 -2.194,-2.074 -5.134,-4.854c-9.594,-9.073 -15.03,-21.695 -15.03,-34.9c0,-20.805 0,-51.812 0,-66.262c0,-2.108 0.837,-4.13 2.327,-5.62c1.491,-1.49 3.512,-2.328 5.62,-2.328c0,0 0,0 0,0c2.108,0 4.129,0.838 5.62,2.328c1.49,1.49 2.327,3.512 2.327,5.62c0,14.335 0,44.357 0,58.643c0,2.09 -0.83,4.094 -2.307,5.572c-1.478,1.478 -3.482,2.308 -5.572,2.308c0,0 0,0 -0.001,0c-2.089,0 -4.094,-0.83 -5.571,-2.308c-1.478,-1.478 -2.308,-3.482 -2.308,-5.571c0,-21.296 0,-79.577 0,-97.168c0,-3.262 1.295,-6.389 3.602,-8.695c0,0 0,-0.001 0,-0.001c0.598,-0.597 0.776,-1.496 0.453,-2.277c-0.324,-0.781 -1.086,-1.29 -1.931,-1.29c-2.609,0 -5.778,0 -8.351,0c-0.836,0 -1.592,0.494 -1.928,1.26c-0.335,0.765 -0.185,1.656 0.382,2.27c0,0.001 0,0.001 0.001,0.001c2.124,2.3 3.133,4.613 3.133,7.744c0,16.74 0.171,72.975 0.171,98.132c0,3.337 1.325,6.537 3.685,8.897c2.359,2.359 5.559,3.685 8.896,3.685c0,0 0.001,0 0.001,0c3.337,0 6.537,-1.326 8.896,-3.685c2.36,-2.36 3.685,-5.56 3.685,-8.897c0,-15.629 0,-42.145 0,-57.83c0,-3.368 -1.337,-6.598 -3.719,-8.98c-2.382,-2.381 -5.612,-3.719 -8.98,-3.719c0,0 0,0 0,0c-3.368,0 -6.598,1.338 -8.98,3.719c-2.382,2.382 -3.719,5.612 -3.719,8.98c0,16.713 0,46.279 0,66.048c0,12.866 -5.162,25.194 -14.329,34.222c-2.875,2.831 -5.032,4.956 -5.032,4.956Z"/></clipPath><g clip-path="url(#_clip1)"><path d="M35.43,71.105l-19.685,0" style="fill:none;stroke:#000;stroke-width:3px;"/><path d="M35.43,80.861l-19.685,0" style="fill:none;stroke:#000;stroke-width:3px;"/><path d="M35.43,91.057l-19.685,0" style="fill:none;stroke:#000;stroke-width:3px;"/><circle cx="11.409" cy="70.65" r="3.962" style="fill:#fff;stroke:#000;stroke-width:3px;"/><circle cx="11.409" cy="80.691" r="3.962" style="fill:#fff;stroke:#000;stroke-width:3px;"/><circle cx="11.409" cy="91.158" r="3.962" style="fill:#fff;stroke:#000;stroke-width:3px;"/></g><path d="M1.647,158.391l44.093,0c0,0 -2.194,-2.074 -5.134,-4.854c-9.594,-9.073 -15.03,-21.695 -15.03,-34.9c0,-20.805 0,-51.812 0,-66.262c0,-2.108 0.837,-4.13 2.327,-5.62c1.491,-1.49 3.512,-2.328 5.62,-2.328c0,0 0,0 0,0c2.108,0 4.129,0.838 5.62,2.328c1.49,1.49 2.327,3.512 2.327,5.62c0,14.335 0,44.357 0,58.643c0,2.09 -0.83,4.094 -2.307,5.572c-1.478,1.478 -3.482,2.308 -5.572,2.308c0,0 0,0 -0.001,0c-2.089,0 -4.094,-0.83 -5.571,-2.308c-1.478,-1.478 -2.308,-3.482 -2.308,-5.571c0,-21.296 0,-79.577 0,-97.168c0,-3.262 1.295,-6.389 3.602,-8.695c0,0 0,-0.001 0,-0.001c0.598,-0.597 0.776,-1.496 0.453,-2.277c-0.324,-0.781 -1.086,-1.29 -1.931,-1.29c-2.609,0 -5.778,0 -8.351,0c-0.836,0 -1.592,0.494 -1.928,1.26c-0.335,0.765 -0.185,1.656 0.382,2.27c0,0.001 0,0.001 0.001,0.001c2.124,2.3 3.133,4.613 3.133,7.744c0,16.74 0.171,72.975 0.171,98.132c0,3.337 1.325,6.537 3.685,8.897c2.359,2.359 5.559,3.685 8.896,3.685c0,0 0.001,0 0.001,0c3.337,0 6.537,-1.326 8.896,-3.685c2.36,-2.36 3.685,-5.56 3.685,-8.897c0,-15.629 0,-42.145 0,-57.83c0,-3.368 -1.337,-6.598 -3.719,-8.98c-2.382,-2.381 -5.612,-3.719 -8.98,-3.719c0,0 0,0 0,0c-3.368,0 -6.598,1.338 -8.98,3.719c-2.382,2.382 -3.719,5.612 -3.719,8.98c0,16.713 0,46.279 0,66.048c0,12.866 -5.162,25.194 -14.329,34.222c-2.875,2.831 -5.032,4.956 -5.032,4.956Z" style="fill:none;stroke:#000;stroke-width:3px;"/><rect x="21.072" y="44.99" width="4.62" height="71.304" style="fill:#1924fb;stroke:#000;stroke-width:3px;"/></g></svg>